<svg width="52" height="30" viewBox="0 0 52 30" fill="none" xmlns="http://www.w3.org/2000/svg">
<path d="M50.781 29.5595C51.3882 29.5595 51.8757 29.0671 51.8757 28.4604C51.8757 27.8537 51.3882 27.3657 50.781 27.3657H1.09988C0.493214 27.3657 -0.000244141 27.8537 -0.000244141 28.4604C-0.000244141 29.0671 0.493214 29.5595 1.09988 29.5595H50.781Z" fill="#DD0031"/>
<path d="M17.6227 10.1089C18.1519 10.1089 18.5809 9.6804 18.5809 9.15119C18.5809 8.62252 18.1519 8.19352 17.6227 8.19352C17.0935 8.19352 16.6651 8.62252 16.6651 9.15119C16.6651 9.6804 17.0935 10.1089 17.6227 10.1089Z" fill="#DD0031"/>
<path d="M29.6369 9.15119C29.6369 9.6804 29.2079 10.1089 28.6787 10.1089C28.1495 10.1089 27.7205 9.6804 27.7205 9.15119C27.7205 8.62252 28.1495 8.19352 28.6787 8.19352C29.2079 8.19352 29.6369 8.62252 29.6369 9.15119Z" fill="#DD0031"/>
<path d="M23.151 10.1089C23.6802 10.1089 24.1092 9.6804 24.1092 9.15119C24.1092 8.62252 23.6802 8.19352 23.151 8.19352C22.6218 8.19352 22.1928 8.62252 22.1928 9.15119C22.1928 9.6804 22.6218 10.1089 23.151 10.1089Z" fill="#DD0031"/>
<path d="M32.295 12.0531C32.295 12.5823 31.866 13.0113 31.3373 13.0113C30.8081 13.0113 30.3791 12.5823 30.3791 12.0531C30.3791 11.5244 30.8081 11.0954 31.3373 11.0954C31.866 11.0954 32.295 11.5244 32.295 12.0531Z" fill="#DD0031"/>
<path d="M17.6227 15.5958C18.1519 15.5958 18.5809 15.1674 18.5809 14.6382C18.5809 14.1095 18.1519 13.6805 17.6227 13.6805C17.0935 13.6805 16.6651 14.1095 16.6651 14.6382C16.6651 15.1674 17.0935 15.5958 17.6227 15.5958Z" fill="#DD0031"/>
<path d="M13.0532 14.6382C13.0532 15.1674 12.6242 15.5958 12.095 15.5958C11.5657 15.5958 11.1367 15.1674 11.1367 14.6382C11.1367 14.1095 11.5657 13.6805 12.095 13.6805C12.6242 13.6805 13.0532 14.1095 13.0532 14.6382Z" fill="#DD0031"/>
<path d="M28.6787 15.5958C29.2079 15.5958 29.6369 15.1674 29.6369 14.6382C29.6369 14.1095 29.2079 13.6805 28.6787 13.6805C28.1495 13.6805 27.7205 14.1095 27.7205 14.6382C27.7205 15.1674 28.1495 15.5958 28.6787 15.5958Z" fill="#DD0031"/>
<path d="M24.1092 14.6382C24.1092 15.1674 23.6802 15.5958 23.151 15.5958C22.6218 15.5958 22.1928 15.1674 22.1928 14.6382C22.1928 14.1095 22.6218 13.6805 23.151 13.6805C23.6802 13.6805 24.1092 14.1095 24.1092 14.6382Z" fill="#DD0031"/>
<path d="M14.8181 13.0351C15.3473 13.0351 15.7763 12.6066 15.7763 12.0774C15.7763 12.0756 15.776 12.0738 15.7758 12.0719L15.7754 12.069C15.7753 12.0679 15.7752 12.0667 15.7752 12.0655C15.7752 12.0633 15.7755 12.0612 15.7758 12.0592L15.7759 12.0581C15.7761 12.0566 15.7763 12.0551 15.7763 12.0536C15.7763 11.5244 15.3473 11.0954 14.8181 11.0954C14.2889 11.0954 13.8604 11.5244 13.8604 12.0536C13.8604 12.0574 13.8615 12.0612 13.8615 12.0655C13.8615 12.0678 13.8612 12.0699 13.8609 12.0719L13.8606 12.0745C13.8605 12.0755 13.8604 12.0764 13.8604 12.0774C13.8604 12.6066 14.2889 13.0351 14.8181 13.0351Z" fill="#DD0031"/>
<path d="M26.8324 12.0774C26.8324 12.6066 26.4033 13.0351 25.8741 13.0351C25.3449 13.0351 24.9159 12.6066 24.9159 12.0774C24.9159 12.0756 24.9163 12.0738 24.9167 12.0719C24.9171 12.0699 24.9176 12.0678 24.9176 12.0655C24.9176 12.0612 24.9159 12.0574 24.9159 12.0536C24.9159 11.5244 25.3449 11.0954 25.8741 11.0954C26.4033 11.0954 26.8324 11.5244 26.8324 12.0536C26.8324 12.0554 26.8321 12.0573 26.8318 12.0592C26.8316 12.0612 26.8313 12.0633 26.8313 12.0655C26.8313 12.0699 26.8324 12.0736 26.8324 12.0774Z" fill="#DD0031"/>
<path d="M20.3464 13.0351C20.8756 13.0351 21.3046 12.6066 21.3046 12.0774C21.3046 12.0756 21.3042 12.0738 21.3038 12.0719C21.3034 12.0699 21.303 12.0678 21.303 12.0655C21.303 12.0633 21.3034 12.0612 21.3038 12.0592C21.3042 12.0573 21.3046 12.0554 21.3046 12.0536C21.3046 11.5244 20.8756 11.0954 20.3464 11.0954C19.8172 11.0954 19.3882 11.5244 19.3882 12.0536C19.3882 12.0546 19.3882 12.0555 19.3883 12.0565L19.3887 12.0592C19.389 12.0612 19.3893 12.0633 19.3893 12.0655L19.3892 12.0674L19.389 12.0692L19.3887 12.0716C19.3884 12.0736 19.3882 12.0755 19.3882 12.0774C19.3882 12.6066 19.8172 13.0351 20.3464 13.0351Z" fill="#DD0031"/>
<path d="M18.5809 19.9543C18.5809 20.4836 18.1519 20.9126 17.6227 20.9126C17.0935 20.9126 16.6651 20.4836 16.6651 19.9543C16.6651 19.4257 17.0935 18.9972 17.6227 18.9972C18.1519 18.9972 18.5809 19.4257 18.5809 19.9543Z" fill="#DD0031"/>
<path d="M12.095 20.9126C12.6242 20.9126 13.0532 20.4836 13.0532 19.9543C13.0532 19.4257 12.6242 18.9972 12.095 18.9972C11.5657 18.9972 11.1367 19.4257 11.1367 19.9543C11.1367 20.4836 11.5657 20.9126 12.095 20.9126Z" fill="#DD0031"/>
<path d="M29.6369 19.9543C29.6369 20.4836 29.2079 20.9126 28.6787 20.9126C28.1495 20.9126 27.7205 20.4836 27.7205 19.9543C27.7205 19.4257 28.1495 18.9972 28.6787 18.9972C29.2079 18.9972 29.6369 19.4257 29.6369 19.9543Z" fill="#DD0031"/>
<path d="M23.151 20.9126C23.6802 20.9126 24.1092 20.4836 24.1092 19.9543C24.1092 19.4257 23.6802 18.9972 23.151 18.9972C22.6218 18.9972 22.1928 19.4257 22.1928 19.9543C22.1928 20.4836 22.6218 20.9126 23.151 20.9126Z" fill="#DD0031"/>
<path d="M15.7763 17.3936C15.7763 17.9228 15.3473 18.3518 14.8181 18.3518C14.2889 18.3518 13.8604 17.9228 13.8604 17.3936C13.8604 16.8649 14.2889 16.4364 14.8181 16.4364C15.3473 16.4364 15.7763 16.8649 15.7763 17.3936Z" fill="#DD0031"/>
<path d="M25.8741 18.3518C26.4033 18.3518 26.8324 17.9228 26.8324 17.3936C26.8324 16.8649 26.4033 16.4364 25.8741 16.4364C25.3449 16.4364 24.9159 16.8649 24.9159 17.3936C24.9159 17.9228 25.3449 18.3518 25.8741 18.3518Z" fill="#DD0031"/>
<path d="M21.3046 17.3936C21.3046 17.9228 20.8756 18.3518 20.3464 18.3518C19.8172 18.3518 19.3882 17.9228 19.3882 17.3936C19.3882 16.8649 19.8172 16.4364 20.3464 16.4364C20.8756 16.4364 21.3046 16.8649 21.3046 17.3936Z" fill="#DD0031"/>
<path d="M9.48553 18.3518C10.0147 18.3518 10.4437 17.9228 10.4437 17.3936C10.4437 16.8649 10.0147 16.4364 9.48553 16.4364C8.95632 16.4364 8.52732 16.8649 8.52732 17.3936C8.52732 17.9228 8.95632 18.3518 9.48553 18.3518Z" fill="#DD0031"/>
<path d="M35.3604 9.27176C35.3604 9.80097 34.9319 10.23 34.4027 10.23C33.8735 10.23 33.4445 9.80097 33.4445 9.27176C33.4445 8.7431 33.8735 8.3141 34.4027 8.3141C34.9319 8.3141 35.3604 8.7431 35.3604 9.27176Z" fill="#DD0031"/>
<path d="M31.3373 18.3518C31.866 18.3518 32.295 17.9228 32.295 17.3936C32.295 16.8649 31.866 16.4364 31.3373 16.4364C30.8081 16.4364 30.3791 16.8649 30.3791 17.3936C30.3791 17.9228 30.8081 18.3518 31.3373 18.3518Z" fill="#DD0031"/>
<path d="M35.3604 14.6228C35.3604 15.152 34.9319 15.5805 34.4027 15.5805C33.8735 15.5805 33.4445 15.152 33.4445 14.6228C33.4445 14.0942 33.8735 13.6652 34.4027 13.6652C34.9319 13.6652 35.3604 14.0942 35.3604 14.6228Z" fill="#DD0031"/>
<path d="M37.0608 13.0198C37.59 13.0198 38.019 12.5913 38.019 12.0621C38.019 11.5334 37.59 11.1044 37.0608 11.1044C36.5316 11.1044 36.1026 11.5334 36.1026 12.0621C36.1026 12.5913 36.5316 13.0198 37.0608 13.0198Z" fill="#DD0031"/>
<path d="M35.2678 19.9543C35.2678 20.4836 34.8388 20.9126 34.3096 20.9126C33.781 20.9126 33.352 20.4836 33.352 19.9543C33.352 19.4257 33.781 18.9972 34.3096 18.9972C34.8388 18.9972 35.2678 19.4257 35.2678 19.9543Z" fill="#DD0031"/>
<path d="M36.9682 18.3518C37.4974 18.3518 37.9264 17.9228 37.9264 17.3936C37.9264 16.8649 37.4974 16.4364 36.9682 16.4364C36.439 16.4364 36.01 16.8649 36.01 17.3936C36.01 17.9228 36.439 18.3518 36.9682 18.3518Z" fill="#DD0031"/>
<path d="M40.9918 14.6228C40.9918 15.152 40.5628 15.5805 40.0336 15.5805C39.5044 15.5805 39.0754 15.152 39.0754 14.6228C39.0754 14.0942 39.5044 13.6652 40.0336 13.6652C40.5628 13.6652 40.9918 14.0942 40.9918 14.6228Z" fill="#DD0031"/>
<path d="M39.8654 21.2426C40.3947 21.2426 40.8237 20.8141 40.8237 20.2849C40.8237 19.7563 40.3947 19.3273 39.8654 19.3273C39.3362 19.3273 38.9072 19.7563 38.9072 20.2849C38.9072 20.8141 39.3362 21.2426 39.8654 21.2426Z" fill="#DD0031"/>
<path d="M43.4817 17.7242C43.4817 18.2534 43.0527 18.6819 42.5235 18.6819C41.9948 18.6819 41.5658 18.2534 41.5658 17.7242C41.5658 17.1955 41.9948 16.7665 42.5235 16.7665C43.0527 16.7665 43.4817 17.1955 43.4817 17.7242Z" fill="#DD0031"/>
<path fill-rule="evenodd" clip-rule="evenodd" d="M30.9023 4.57817V2.01609C30.9023 1.40942 30.4088 0.916504 29.8027 0.916504H22.7719C22.1652 0.916504 21.6777 1.40942 21.6777 2.01609V4.58359C11.9055 5.79692 4.31673 14.1494 4.31673 24.2407C4.31673 24.8473 4.81019 25.3348 5.41686 25.3348H47.2281C47.8294 25.3348 48.3223 24.8473 48.3223 24.2407C48.3223 14.1223 40.7005 5.76442 30.9023 4.57817ZM43.5827 22.5236C43.5827 22.7619 43.496 22.9732 43.3498 23.1411H46.096C46.0467 22.3394 45.9384 21.5486 45.7819 20.7794C45.6356 20.8661 45.4677 20.9203 45.2835 20.9203C44.7581 20.9203 44.3248 20.4923 44.3248 19.9615C44.3248 19.4361 44.7581 19.0028 45.2835 19.0028C45.2911 19.0028 45.2986 19.0039 45.3067 19.0052C45.316 19.0066 45.3261 19.0082 45.3377 19.0082C43.4576 12.9848 38.4314 8.34275 32.1909 7.01567C32.0338 7.32984 31.7148 7.5465 31.3356 7.5465C30.8535 7.5465 30.4576 7.189 30.3931 6.72317C29.7751 6.65817 29.1467 6.62025 28.513 6.62025H26.8289C26.8127 7.13484 26.3896 7.5465 25.8756 7.5465C25.3551 7.5465 24.9385 7.13484 24.9217 6.62025H24.1314C23.151 6.62025 22.1971 6.70692 21.2606 6.85859C21.1414 7.25942 20.7785 7.5465 20.3446 7.5465C20.0581 7.5465 19.7981 7.4165 19.6242 7.21067C13.6123 8.80317 8.85644 13.4994 7.17186 19.4686C7.40965 19.6419 7.56673 19.9236 7.56673 20.2377C7.56673 20.709 7.23144 21.099 6.78186 21.1803C6.66756 21.8248 6.58686 22.4748 6.54894 23.1411H8.63436C8.56936 23.0111 8.52602 22.8648 8.52602 22.7132C8.52602 22.1823 8.95936 21.7544 9.48423 21.7544C10.0156 21.7544 10.4435 22.1823 10.4435 22.7132C10.4435 22.8648 10.4002 23.0111 10.3352 23.1411H13.9698C13.8994 23.0111 13.8614 22.8648 13.8614 22.7132C13.8614 22.1823 14.2894 21.7544 14.8202 21.7544C15.3456 21.7544 15.7735 22.1823 15.7735 22.7132C15.7735 22.8648 15.7356 23.0111 15.6701 23.1411H19.4948C19.4298 23.0111 19.3864 22.8648 19.3864 22.7132C19.3864 22.1823 19.8198 21.7544 20.3446 21.7544C20.876 21.7544 21.3039 22.1823 21.3039 22.7132C21.3039 22.8648 21.2655 23.0111 21.1956 23.1411H25.0252C24.9548 23.0111 24.9169 22.8648 24.9169 22.7132C24.9169 22.1823 25.3448 21.7544 25.8756 21.7544C26.401 21.7544 26.8344 22.1823 26.8344 22.7132C26.8344 22.8648 26.791 23.0111 26.726 23.1411H30.6531C30.5876 23.0111 30.5502 22.8648 30.5502 22.7132C30.5502 22.1823 30.9781 21.7544 31.5035 21.7544C32.0338 21.7544 32.4617 22.1823 32.4617 22.7132C32.4617 22.8648 32.4244 23.0111 32.3534 23.1411H36.1131C36.1077 23.1086 36.1023 23.0761 36.1023 23.0436C36.1023 22.5127 36.5302 22.0848 37.061 22.0848C37.5919 22.0848 38.0198 22.5127 38.0198 23.0436C38.0198 23.0711 38.0155 23.0986 38.0112 23.1261L38.0089 23.1411H41.9035C41.7573 22.9732 41.6701 22.7619 41.6701 22.5236C41.6701 21.9927 42.098 21.5648 42.6239 21.5648C43.1548 21.5648 43.5827 21.9927 43.5827 22.5236ZM23.8714 3.11025H28.7085V4.43192C28.676 4.43192 28.6434 4.43057 28.6108 4.42921C28.5781 4.42786 28.5455 4.4265 28.513 4.4265H24.1314C24.0877 4.4265 24.0441 4.42787 24.0006 4.42922C23.9574 4.43057 23.9144 4.43192 23.8714 4.43192V3.11025Z" fill="#DD0031"/>
</svg>
